<?xml version="1.0" encoding="UTF-8"?>
<svg version="1.1" xmlns="http://www.w3.org/2000/svg" width="751" height="751">
<path d="M0 0 C247.83 0 495.66 0 751 0 C751 247.83 751 495.66 751 751 C503.17 751 255.34 751 0 751 C0 503.17 0 255.34 0 0 Z " fill="#FBFBFB" transform="translate(0,0)"/>
<path d="M0 0 C2.87423339 0.86493973 4.08786709 1.78057195 6.18757629 3.89068604 C6.84788345 4.54483994 7.50819061 5.19899384 8.18850708 5.87297058 C8.88453537 6.5833699 9.58056366 7.29376923 10.29768372 8.0256958 C11.02307846 8.75200699 11.74847321 9.47831818 12.49584961 10.22663879 C14.02431254 11.76113645 15.547919 13.30048471 17.06697083 14.84429932 C19.40132331 17.21524422 21.75136613 19.56971334 24.10432434 21.92218018 C25.58639309 23.41407661 27.06754527 24.90688426 28.54768372 26.4006958 C29.25383316 27.10907089 29.9599826 27.81744598 30.68753052 28.54728699 C31.33207687 29.20459305 31.97662323 29.86189911 32.64070129 30.53912354 C33.21186172 31.11790756 33.78302216 31.69669159 34.37149048 32.29301453 C35.59065247 33.77960205 35.59065247 33.77960205 35.59065247 35.77960205 C36.16815247 36.02710205 36.74565247 36.27460205 37.34065247 36.52960205 C39.92005226 37.96260194 41.65186839 39.56384882 43.59065247 41.77960205 C43.59065247 42.43960205 43.59065247 43.09960205 43.59065247 43.77960205 C44.16815247 44.02710205 44.74565247 44.27460205 45.34065247 44.52960205 C47.92005226 45.96260194 49.65186839 47.56384882 51.59065247 49.77960205 C51.59065247 50.43960205 51.59065247 51.09960205 51.59065247 51.77960205 C52.16815247 52.02710205 52.74565247 52.27460205 53.34065247 52.52960205 C55.92005226 53.96260194 57.65186839 55.56384882 59.59065247 57.77960205 C59.59065247 58.43960205 59.59065247 59.09960205 59.59065247 59.77960205 C60.39937805 60.105896 60.39937805 60.105896 61.22444153 60.43878174 C64.41273019 62.24543478 66.85694793 64.68153382 69.45002747 67.23272705 C69.9992688 67.77056824 70.54851013 68.30840942 71.11439514 68.86254883 C72.27024172 69.99955031 73.423243 71.13945059 74.57356262 72.28204346 C76.33491398 74.02392699 78.1164265 75.74332806 79.89924622 77.4631958 C81.02165287 78.5725461 82.1427909 79.68318172 83.26252747 80.79522705 C83.79682373 81.30482971 84.33112 81.81443237 84.88160706 82.33947754 C87.37175498 84.86027787 88.53393825 86.43240042 89.11116028 89.96612549 C88.59065247 92.77960205 88.59065247 92.77960205 87.34284973 94.57891846 C85.38740441 95.91887667 83.86331663 96.4623921 81.55549622 96.99053955 C80.7564386 97.18043457 79.95738098 97.37032959 79.1341095 97.565979 C78.27414368 97.76022461 77.41417786 97.95447021 76.52815247 98.15460205 C74.69044479 98.59143959 72.85321178 99.03027832 71.01643372 99.4710083 C70.09555969 99.69031006 69.17468567 99.90961182 68.22590637 100.13555908 C64.53142009 101.03847318 60.87372906 102.05288067 57.21565247 103.09210205 C48.37616182 105.5875528 39.50115655 107.94621395 30.62355042 110.30148315 C21.94400838 112.60500752 13.27551661 114.93943664 4.64143372 117.4085083 C-0.20054072 118.77960205 -0.20054072 118.77960205 -2.40934753 118.77960205 C-1.95044128 119.22948486 -1.49153503 119.67936768 -1.01872253 120.1428833 C10.32628455 132.0360735 10.90232269 147.79450373 10.78596497 163.41241455 C10.78222673 164.90027678 10.7793836 166.38814149 10.77738953 167.87600708 C10.76981681 171.75904343 10.75022439 175.64192602 10.72798157 179.52490234 C10.70375227 184.20151594 10.69471181 188.87818146 10.68307495 193.55484009 C10.66379514 200.62986712 10.62542876 207.70455791 10.59065247 214.77960205 C0.69065247 214.77960205 -9.20934753 214.77960205 -19.40934753 214.77960205 C-19.44673035 210.41999268 -19.48411316 206.0603833 -19.52262878 201.56866455 C-19.56079861 198.06838615 -19.60187084 194.56816826 -19.64488983 191.06794739 C-19.68934828 187.38640465 -19.72882362 183.70497039 -19.75578308 180.02325439 C-19.78200285 176.46983236 -19.82253274 172.91682301 -19.8725338 169.36365891 C-19.89706815 167.36435088 -19.90719868 165.36488257 -19.91699219 163.365448 C-20.04749187 155.1868259 -20.23338684 146.82173384 -25.47184753 140.15460205 C-29.83253385 138.11342973 -33.68218021 138.05644441 -38.40934753 138.77960205 C-44.29659103 141.38357514 -47.32598408 146.32596571 -50.40934753 151.77960205 C-51.4678293 154.95504734 -51.56568867 157.29027691 -51.6146698 160.62799072 C-51.63461502 161.82900925 -51.65456024 163.03002777 -51.67510986 164.2674408 C-51.69182236 165.5643837 -51.70853485 166.8613266 -51.72575378 168.1975708 C-51.74633047 169.53850435 -51.76732713 170.87943151 -51.78872681 172.22035217 C-51.8438738 175.74662094 -51.89331548 179.27294754 -51.9415741 182.79931641 C-51.99184303 186.39891689 -52.04744888 189.99843464 -52.10270691 193.59796143 C-52.21070276 200.65844482 -52.30978273 207.71897453 -52.40934753 214.77960205 C-62.63934753 214.77960205 -72.86934753 214.77960205 -83.40934753 214.77960205 C-83.40934753 182.10960205 -83.40934753 149.43960205 -83.40934753 115.77960205 C-73.83934753 115.77960205 -64.26934753 115.77960205 -54.40934753 115.77960205 C-54.07934753 120.06960205 -53.74934753 124.35960205 -53.40934753 128.77960205 C-52.27497253 127.56272705 -51.14059753 126.34585205 -49.97184753 125.09210205 C-45.9200726 121.02588229 -41.6869503 118.05707379 -36.40934753 115.77960205 C-35.74934753 115.77960205 -35.08934753 115.77960205 -34.40934753 115.77960205 C-34.25079285 114.91721924 -34.09223816 114.05483643 -33.92887878 113.1663208 C-31.60300134 100.99722719 -28.46946144 89.08924113 -25.11637878 77.1663208 C-24.90352234 76.40811035 -24.69066589 75.6498999 -24.47135925 74.86871338 C-24.07985547 73.48069625 -23.68488607 72.0936469 -23.28483582 70.70806885 C-21.91487269 65.87779833 -20.74045587 61.00839399 -19.60075378 56.1194458 C-17.35911022 46.50729054 -15.03014213 36.91850841 -12.62760925 27.34527588 C-12.14329839 25.4045754 -11.66457577 23.46247289 -11.19108582 21.519104 C-10.49590065 18.66884484 -9.78273899 15.82362383 -9.06559753 12.9788208 C-8.85817932 12.11222336 -8.65076111 11.24562592 -8.4370575 10.35276794 C-5.64443441 -0.51633139 -5.64443441 -0.51633139 0 0 Z " fill="#E583C2" transform="translate(623.4093475341797,279.22039794921875)"/>
<path d="M0 0 C0.77907715 -0.0066568 1.5581543 -0.0133136 2.36083984 -0.02017212 C3.97686467 -0.03011234 5.59292901 -0.03499511 7.20898438 -0.03466797 C9.62440593 -0.03906142 12.03802086 -0.07563691 14.453125 -0.11328125 C27.986247 -0.21191904 41.80514945 1.42671455 53.9375 7.8984375 C54.91203125 8.40769775 54.91203125 8.40769775 55.90625 8.92724609 C68.02250294 15.5834489 75.94635082 24.84424782 81.625 37.3359375 C82.15222656 38.45613281 82.67945312 39.57632813 83.22265625 40.73046875 C86.77532401 49.86448643 87.07718695 58.70707613 87.125 68.4609375 C87.13144531 69.71132813 87.13789062 70.96171875 87.14453125 72.25 C86.86742818 92.54247066 80.83780221 109.43644379 67.1875 124.4609375 C52.61590676 138.60919699 31.31992564 142.74788562 11.75 142.5859375 C10.01182007 142.57904907 10.01182007 142.57904907 8.23852539 142.57202148 C-20.49619166 142.27534167 -20.49619166 142.27534167 -26.375 139.3359375 C-26.375 94.1259375 -26.375 48.9159375 -26.375 2.3359375 C-6.70328266 0.02161781 -6.70328266 0.02161781 0 0 Z " fill="#232323" transform="translate(34.375,353.6640625)"/>
<path d="M0 0 C2.6088557 1.12815381 3.57181693 1.75338324 5.3125 4 C6.22305878 6.69710511 6.99509406 9.31554808 7.6953125 12.06640625 C7.90777618 12.86591202 8.12023987 13.66541779 8.33914185 14.489151 C8.78391268 16.16371208 9.22472032 17.83933036 9.66174316 19.51593018 C10.466015 22.58599767 11.30221411 25.64673821 12.14111328 28.70748901 C13.16558047 32.44838587 14.17562372 36.19318175 15.1875 39.9375 C15.40249146 40.7320459 15.61748291 41.5265918 15.83898926 42.34521484 C18.93634552 53.79795092 21.9515801 65.26833686 24.89868164 76.76074219 C26.92392368 84.61453752 29.08798186 92.42122272 31.36035156 100.20703125 C35.92438616 115.85514987 35.92438616 115.85514987 34.3125 120 C32.8125 122.375 32.8125 122.375 30.3125 124 C24.32797782 124.05273043 18.47197382 122.39752855 12.75 120.8125 C5.71185952 118.88583684 -1.3468855 117.06335824 -8.4296875 115.30859375 C-21.73717125 111.99599954 -35.03026827 108.62743378 -48.32104492 105.24853516 C-51.63981162 104.40486689 -54.9589357 103.56261314 -58.27813816 102.72066116 C-61.49946269 101.90324067 -64.72041032 101.08433934 -67.94140625 100.265625 C-69.12054092 99.96666321 -70.2996756 99.66770142 -71.51454163 99.35968018 C-74.57427998 98.5809164 -77.63167084 97.79394789 -80.6875 97 C-81.4377243 96.80764771 -82.18794861 96.61529541 -82.96090698 96.41711426 C-85.76273268 95.66739019 -87.50470799 95.16565526 -89.6875 93.1875 C-91.01212077 90.28989207 -90.61633821 89.02433309 -89.6875 86 C-87.91015625 83.76171875 -87.91015625 83.76171875 -85.75 81.6875 C-85.03972656 80.99011719 -84.32945312 80.29273438 -83.59765625 79.57421875 C-81.6875 78 -81.6875 78 -79.6875 78 C-79.460625 77.443125 -79.23375 76.88625 -79 76.3125 C-77.30606764 73.32795251 -75.17135302 71.37345955 -72.6875 69 C-72.089375 68.38125 -71.49125 67.7625 -70.875 67.125 C-70.25625 66.485625 -69.6375 65.84625 -69 65.1875 C-68.41863281 64.58292969 -67.83726562 63.97835937 -67.23828125 63.35546875 C-65.6875 62 -65.6875 62 -63.6875 62 C-63.44 61.4225 -63.1925 60.845 -62.9375 60.25 C-61.50450012 57.67060021 -59.90325324 55.93878408 -57.6875 54 C-57.0275 54 -56.3675 54 -55.6875 54 C-55.44 53.4225 -55.1925 52.845 -54.9375 52.25 C-53.50450012 49.67060021 -51.90325324 47.93878408 -49.6875 46 C-49.0275 46 -48.3675 46 -47.6875 46 C-47.4503125 45.43829102 -47.213125 44.87658203 -46.96875 44.29785156 C-45.39430643 41.47417342 -43.47065455 39.52385158 -41.1875 37.234375 C-40.300625 36.34492188 -39.41375 35.45546875 -38.5 34.5390625 C-37.571875 33.61867188 -36.64375 32.69828125 -35.6875 31.75 C-34.2953125 30.34621094 -34.2953125 30.34621094 -32.875 28.9140625 C-31.988125 28.02976563 -31.10125 27.14546875 -30.1875 26.234375 C-29.3728125 25.42194336 -28.558125 24.60951172 -27.71875 23.77246094 C-25.6875 22 -25.6875 22 -23.6875 22 C-23.1925 20.515 -23.1925 20.515 -22.6875 19 C-20.25 16.3125 -20.25 16.3125 -17.6875 14 C-17.0275 14 -16.3675 14 -15.6875 14 C-15.2853125 13.0409375 -15.2853125 13.0409375 -14.875 12.0625 C-13.6875 10 -13.6875 10 -10.6875 9 C-10.419375 8.4225 -10.15125 7.845 -9.875 7.25 C-7.76067055 3.2439021 -4.68223742 0 0 0 Z " fill="#7CE6D6" transform="translate(535.6875,227)"/>
<path d="M0 0 C4.58520703 0.09592483 7.84456411 2.52819416 11.5703125 4.9921875 C13.98850497 6.49286643 16.3557158 7.46829567 19 8.5 C19.99 9.16 20.98 9.82 22 10.5 C22 11.16 22 11.82 22 12.5 C22.99 12.5 23.98 12.5 25 12.5 C25 13.16 25 13.82 25 14.5 C25.804375 14.726875 26.60875 14.95375 27.4375 15.1875 C32.99429703 17.23474101 37.91548424 20.26503298 43 23.27734375 C48.23791616 26.37426168 53.31864829 29.30493229 59 31.5 C59 32.16 59 32.82 59 33.5 C60.134375 33.768125 61.26875 34.03625 62.4375 34.3125 C63.613125 34.704375 64.78875 35.09625 66 35.5 C66.33 36.49 66.66 37.48 67 38.5 C68.98234986 39.21744929 70.98643215 39.87550903 73 40.5 C75.0278554 41.59578124 77.02826879 42.74367837 79 43.9375 C81.99410326 45.74253881 84.94863929 47.47454748 88.08203125 49.02734375 C90.79093699 50.39448895 93.19898915 51.89650555 95.6875 53.625 C98.21421682 55.3793008 100.05877709 56.51959236 103 57.5 C103 58.16 103 58.82 103 59.5 C104.485 59.995 104.485 59.995 106 60.5 C107.03645922 65.42318128 107.03645922 65.42318128 106 68.5 C102.36246748 71.47033079 98.16710116 73.36994159 94 75.5 C91.75825131 76.85438984 89.5288012 78.2293575 87.3125 79.625 C82.91524138 82.34961718 78.48203434 84.9403438 73.93359375 87.40234375 C72.08532071 88.45156542 70.36372735 89.59241503 68.625 90.8125 C66 92.5 66 92.5 63 92.5 C63 93.16 63 93.82 63 94.5 C62.41992188 94.81453125 61.83984375 95.1290625 61.2421875 95.453125 C57.59002839 97.45397785 53.98877999 99.44046001 50.5625 101.8125 C48 103.5 48 103.5 46 103.5 C46 104.16 46 104.82 46 105.5 C44.45892578 106.24443359 44.45892578 106.24443359 42.88671875 107.00390625 C35.44341545 110.63867285 28.24903876 114.37110973 21.33203125 118.95703125 C18.92772524 120.54781998 16.48101387 122.03203494 14 123.5 C13.12601563 124.02980469 12.25203125 124.55960937 11.3515625 125.10546875 C5.98320118 128.22034888 2.2489915 130.33319887 -4 129.5 C-5.24834651 127.00330697 -5.128608 125.32179846 -5.13371277 122.52746582 C-5.13797775 121.47583755 -5.14224274 120.42420929 -5.14663696 119.3407135 C-5.14618378 118.18220383 -5.14573059 117.02369415 -5.14526367 115.83007812 C-5.14862228 114.61380234 -5.1519809 113.39752655 -5.15544128 112.14439392 C-5.16332859 108.80355649 -5.1666197 105.46278119 -5.16725707 102.12193871 C-5.16820543 99.33597113 -5.17188278 96.55000956 -5.17542917 93.76404428 C-5.18357637 87.19376733 -5.18601312 80.62350408 -5.18530273 74.05322266 C-5.1847015 67.26741479 -5.19526173 60.4816863 -5.2110464 53.69589853 C-5.22410384 47.87591377 -5.22948741 42.05595502 -5.22884732 36.23595572 C-5.22859185 32.75721543 -5.23147 29.27854569 -5.24202538 25.79981995 C-5.25346689 21.9231554 -5.24897059 18.04660059 -5.24291992 14.16992188 C-5.24853943 13.0114122 -5.25415894 11.85290253 -5.25994873 10.6592865 C-5.25575424 9.60765823 -5.25155975 8.55602997 -5.24723816 7.47253418 C-5.24778293 6.55518242 -5.24832769 5.63783066 -5.24888897 4.69268036 C-4.83705368 1.06446354 -3.46061465 0.57676911 0 0 Z " fill="#F6DB6A" transform="translate(578,145.5)"/>
<path d="M0 0 C2.0496034 0.00852682 4.09641992 -0.02041349 6.14575195 -0.05200195 C17.37973454 -0.11174599 29.65041057 1.14368715 38.50708008 8.77026367 C47.92091091 18.57252927 48.5568681 32.04652858 48.59301758 45.01635742 C48.60859711 46.2592453 48.62417664 47.50213318 48.64022827 48.78268433 C48.68728771 52.71213199 48.71534453 56.64140734 48.74145508 60.57104492 C48.77816949 64.50769965 48.81897749 68.44426165 48.86410522 72.38082886 C48.89093585 74.81723558 48.9124525 77.25370896 48.92764282 79.69021606 C48.93790497 80.80862885 48.94816711 81.92704163 48.95874023 83.0793457 C48.9652359 84.04607208 48.97173157 85.01279846 48.97842407 86.00881958 C49.1721226 90.8322683 49.67940858 95.6385334 50.11645508 100.44604492 C40.54645508 100.44604492 30.97645508 100.44604492 21.11645508 100.44604492 C20.45645508 96.15604492 19.79645508 91.86604492 19.11645508 87.44604492 C18.49770508 88.31229492 17.87895508 89.17854492 17.24145508 90.07104492 C10.70624924 97.85806483 0.63760933 101.83750403 -9.27416992 102.76245117 C-19.44867026 103.10380346 -27.88472062 100.95671586 -35.88354492 94.44604492 C-42.28080343 87.29939327 -44.43626173 79.91442815 -44.17260742 70.41088867 C-43.17110603 60.13873255 -38.1488142 52.96647803 -30.44604492 46.34057617 C-16.42973332 35.97790677 0.51397455 36.27449231 17.11645508 36.44604492 C16.86024824 34.83947732 16.58589636 33.23579662 16.30395508 31.63354492 C16.15313477 30.74022461 16.00231445 29.8469043 15.84692383 28.92651367 C15.046818 26.20957676 14.34143124 25.15383534 12.11645508 23.44604492 C-0.1261212 19.36518616 -17.82976206 22.44778068 -29.18041992 28.08276367 C-30.07245117 28.53264648 -30.96448242 28.9825293 -31.88354492 29.44604492 C-32.87354492 29.44604492 -33.86354492 29.44604492 -34.88354492 29.44604492 C-35.01631836 28.77057617 -35.1490918 28.09510742 -35.28588867 27.39916992 C-35.46249023 26.50713867 -35.6390918 25.61510742 -35.82104492 24.69604492 C-35.99506836 23.81432617 -36.1690918 22.93260742 -36.34838867 22.02416992 C-36.67145566 20.46778882 -37.02780456 18.9170929 -37.44604492 17.38354492 C-38.19227537 14.07881006 -37.93982964 10.82312775 -37.88354492 7.44604492 C-36.32534127 6.83088236 -34.76157001 6.22982909 -33.19604492 5.63354492 C-32.32592773 5.29709961 -31.45581055 4.9606543 -30.55932617 4.61401367 C-20.35930935 1.37298814 -10.69425615 -0.06751585 0 0 Z " fill="#242424" transform="translate(696.883544921875,393.553955078125)"/>
<path d="M0 0 C0.68037323 -0.01026215 1.36074646 -0.02052429 2.06173706 -0.03109741 C14.02170544 -0.1745472 25.46556389 1.1634464 35.06640625 8.83984375 C43.1176753 16.77903017 45.16453052 26.90297826 45.30435181 37.92242432 C45.2967836 39.54637115 45.2967836 39.54637115 45.2890625 41.203125 C45.30085541 42.3651947 45.31264832 43.5272644 45.32479858 44.72454834 C45.35972237 48.39983778 45.36918673 52.07455913 45.375 55.75 C45.39681033 60.58868694 45.43068129 65.42710682 45.4765625 70.265625 C45.48689514 71.41865112 45.49722778 72.57167725 45.50787354 73.75964355 C45.63552661 82.8166534 46.4563013 91.53725538 47.75 100.5 C38.18 100.5 28.61 100.5 18.75 100.5 C18.09 96.87 17.43 93.24 16.75 89.5 C13.94051452 89.5 13.35096939 90.73237417 11.375 92.6875 C3.01320905 100.25146869 -7.54829249 102.88674441 -18.5390625 102.7734375 C-26.87678068 102.15907932 -33.54036603 99.19317656 -39.59375 93.4375 C-46.30091887 85.59137792 -47.02431554 76.3792791 -46.48095703 66.46923828 C-45.94074783 61.86318391 -43.83686355 58.25419474 -41.25 54.5 C-40.54875 53.448125 -39.8475 52.39625 -39.125 51.3125 C-30.35120291 41.60062398 -16.2315009 37.07661533 -3.47338867 36.33959961 C-0.68790512 36.30479019 2.08981135 36.32414684 4.875 36.375 C5.83148438 36.38402344 6.78796875 36.39304687 7.7734375 36.40234375 C10.09923525 36.42560173 12.42447294 36.45827787 14.75 36.5 C14.46363693 35.05049864 14.16747969 33.60292985 13.8671875 32.15625 C13.70331543 31.34994141 13.53944336 30.54363281 13.37060547 29.71289062 C12.52848346 26.71013931 11.28100898 25.28659458 8.75 23.5 C-3.21009172 19.84711098 -16.7623564 22.71152179 -28.25 26.5 C-29.70019531 26.96212891 -29.70019531 26.96212891 -31.1796875 27.43359375 C-33.21216157 28.09525587 -35.23309005 28.7923123 -37.25 29.5 C-37.9503953 26.7735685 -38.6355775 24.04476473 -39.3125 21.3125 C-39.51166016 20.54357422 -39.71082031 19.77464844 -39.91601562 18.98242188 C-41.90687958 10.84432888 -41.90687958 10.84432888 -40.25 7.5 C-37.83834488 6.20836449 -35.8129083 5.33070917 -33.25 4.5 C-32.16847656 4.11457031 -31.08695312 3.72914063 -29.97265625 3.33203125 C-20.02112864 0.56004757 -10.27106002 0.06663284 0 0 Z " fill="#232323" transform="translate(469.25,393.5)"/>
<path d="M0 0 C0.76892578 -0.020625 1.53785156 -0.04125 2.33007812 -0.0625 C10.69640658 -0.11898154 17.99033953 2.52370221 24.1875 8.25 C37.25189604 22.22164576 33.66814379 47.85676188 33.4621582 65.47595215 C33.41335865 70.1000723 33.39556033 74.72441096 33.37234497 79.34871674 C33.33400551 86.31625229 33.25719545 93.28239109 33.1875 100.25 C23.2875 100.25 13.3875 100.25 3.1875 100.25 C3.15011719 95.89039063 3.11273437 91.53078125 3.07421875 87.0390625 C3.03604893 83.5387841 2.99497669 80.03856621 2.9519577 76.53834534 C2.90749925 72.8568026 2.86802392 69.17536834 2.84106445 65.49365234 C2.81484469 61.94023031 2.7743148 58.38722096 2.72431374 54.83405685 C2.69977939 52.83474883 2.68964885 50.83528052 2.67985535 48.83584595 C2.54935566 40.65722385 2.36346069 32.29213179 -2.875 25.625 C-7.23568632 23.58382768 -11.08533268 23.52684236 -15.8125 24.25 C-21.6997435 26.85397309 -24.72913654 31.79636366 -27.8125 37.25 C-28.87098176 40.42544529 -28.96884114 42.76067486 -29.01782227 46.09838867 C-29.03776749 47.2994072 -29.05771271 48.50042572 -29.07826233 49.73783875 C-29.09497482 51.03478165 -29.11168732 52.33172455 -29.12890625 53.66796875 C-29.14948293 55.0089023 -29.17047959 56.34982946 -29.19187927 57.69075012 C-29.24702627 61.21701889 -29.29646794 64.74334548 -29.34472656 68.26971436 C-29.3949955 71.86931484 -29.45060134 75.46883259 -29.50585938 79.06835938 C-29.61385522 86.12884277 -29.7129352 93.18937248 -29.8125 100.25 C-40.0425 100.25 -50.2725 100.25 -60.8125 100.25 C-60.8125 67.58 -60.8125 34.91 -60.8125 1.25 C-51.2425 1.25 -41.6725 1.25 -31.8125 1.25 C-31.4825 5.54 -31.1525 9.83 -30.8125 14.25 C-29.678125 13.033125 -28.54375 11.81625 -27.375 10.5625 C-19.13299061 2.32049061 -11.34567744 0.0749508 0 0 Z " fill="#242424" transform="translate(600.8125,393.75)"/>
<path d="M0 0 C0.83490967 -0.01466309 1.66981934 -0.02932617 2.5300293 -0.04443359 C10.87266245 0.09202094 18.17069918 3.04324332 24.30859375 8.75390625 C33.98443271 19.92576021 33.17518085 35.56981405 33.0703125 49.48828125 C33.06657093 50.97185574 33.06372939 52.45543275 33.06173706 53.93901062 C33.05419044 57.79734417 33.03462197 61.6555212 33.0123291 65.51379395 C32.98802728 70.16795366 32.97904686 74.82216643 32.96742249 79.47637177 C32.94818998 86.50518921 32.90980579 93.53366492 32.875 100.5625 C22.975 100.5625 13.075 100.5625 2.875 100.5625 C2.81892578 93.78912109 2.81892578 93.78912109 2.76171875 86.87890625 C2.73141139 84.00321842 2.70024564 81.12759042 2.66601562 78.25195312 C2.61186973 73.69640265 2.56075373 69.14097052 2.52856445 64.58520508 C2.50238692 60.90860051 2.46188517 57.23239765 2.41181374 53.55604362 C2.39524195 52.15961678 2.38366775 50.76312061 2.37738609 49.36660957 C2.37174811 38.12155512 2.37174811 38.12155512 -1.125 27.5625 C-4.04286696 24.73045266 -6.62923333 24.3497581 -10.5625 24.125 C-16.57436798 24.3543084 -19.69582588 27.10008927 -23.8125 31.3125 C-29.45787592 39.24654183 -29.58744234 46.56614167 -29.63671875 56.03125 C-29.65466995 57.30730103 -29.67262115 58.58335205 -29.69111633 59.89807129 C-29.73591839 63.264917 -29.7683182 66.63140505 -29.79455566 69.99841309 C-29.82451355 73.44438538 -29.87083326 76.89013674 -29.91601562 80.3359375 C-30.00323426 87.07814047 -30.0634327 93.81981927 -30.125 100.5625 C-40.025 100.5625 -49.925 100.5625 -60.125 100.5625 C-60.125 67.8925 -60.125 35.2225 -60.125 1.5625 C-50.885 1.5625 -41.645 1.5625 -32.125 1.5625 C-32.125 6.1825 -32.125 10.8025 -32.125 15.5625 C-31.465 15.5625 -30.805 15.5625 -30.125 15.5625 C-29.85558594 14.96308594 -29.58617187 14.36367188 -29.30859375 13.74609375 C-26.11748775 7.8588718 -19.61877401 4.05090315 -13.62109375 1.48046875 C-9.04464407 0.27883112 -4.71704953 0.05122038 0 0 Z " fill="#232323" transform="translate(370.125,393.4375)"/>
<path d="M0 0 C1.27447998 0.00797607 2.54895996 0.01595215 3.86206055 0.02416992 C16.57301733 0.2154517 27.9977491 1.7103371 39.875 6.375 C38.48195059 13.78274509 36.75600377 21.07670537 34.875 28.375 C22.875 25.375 22.875 25.375 19.203125 24.296875 C13.88807624 22.97447661 8.57519511 23.00694292 3.125 23 C2.09761719 22.97550781 1.07023437 22.95101563 0.01171875 22.92578125 C-5.73979825 22.82098829 -5.73979825 22.82098829 -10.8203125 25.17578125 C-12.41318557 27.46004333 -12.41318557 27.46004333 -12.25 30.9375 C-11.47746986 34.49907059 -11.47746986 34.49907059 -8.71875 35.97265625 C-4.04396544 37.79683848 0.5579041 38.48810052 5.5 39.25 C18.83848946 41.53031736 29.80335153 44.66018502 38.875 55.375 C43.178987 62.17663748 43.87561756 69.49513672 42.875 77.375 C40.9022853 85.9069911 36.13925682 91.64900005 29.0703125 96.65234375 C12.30686048 106.1852081 -11.2029083 103.82420954 -29.03027344 99.00439453 C-33.90386671 97.54004448 -38.55008876 95.60310049 -43.125 93.375 C-42.02144911 85.81892214 -40.53156211 78.62677382 -38.125 71.375 C-34.60734285 72.12757569 -31.44485942 73.44143061 -28.125 74.8125 C-16.62805788 79.26209952 -2.99517072 81.92102283 8.875 77.375 C11.23910488 75.43768472 11.23910488 75.43768472 11.1875 71.9375 C11.19179122 68.5273895 11.19179122 68.5273895 9.7109375 66.7421875 C7.27329151 64.92691921 5.16485812 64.53894875 2.1875 63.9375 C0.45306641 63.56238281 0.45306641 63.56238281 -1.31640625 63.1796875 C-2.57324219 62.91414063 -3.83007812 62.64859375 -5.125 62.375 C-19.01264567 59.41873581 -31.87452249 55.93271209 -40.125 43.375 C-43.86257461 35.23062289 -44.33818383 27.04274122 -41.2265625 18.609375 C-37.44284884 10.93460828 -30.75174908 5.44854154 -22.80029297 2.51831055 C-15.14479044 0.2540996 -7.95209754 -0.08953768 0 0 Z " fill="#242424" transform="translate(246.125,393.625)"/>
<path d="M0 0 C8.86399513 3.17121813 15.35841498 8.21871842 20.07421875 16.453125 C27.02347091 31.22997345 26.76357284 49.31660738 22.07421875 64.75 C19.0953357 73.01340315 14.97687913 79.13986228 7.8125 84.25 C7.008125 84.8275 6.20375 85.405 5.375 86 C-4.96215875 91.04251646 -14.45451968 89.25 -26.1875 89.25 C-26.1875 59.55 -26.1875 29.85 -26.1875 -0.75 C-19.24733849 -4.22008076 -7.08683411 -2.08676986 0 0 Z " fill="#FAFAFA" transform="translate(66.1875,380.75)"/>
<path d="M0 0 C10.89 0 21.78 0 33 0 C33 32.67 33 65.34 33 99 C22.11 99 11.22 99 0 99 C0 66.33 0 33.66 0 0 Z " fill="#282828" transform="translate(144,395)"/>
<path d="M0 0 C10.23 0 20.46 0 31 0 C31 7.92 31 15.84 31 24 C20.77 24 10.54 24 0 24 C0 16.08 0 8.16 0 0 Z " fill="#212121" transform="translate(145,352)"/>
<path d="M0 0 C0.88365234 0.00902344 1.76730469 0.01804687 2.67773438 0.02734375 C4.84777359 0.05080363 7.01767247 0.08667135 9.1875 0.125 C9.92167397 7.39876062 9.44896936 12.32174438 4.9765625 18.24609375 C0.46347977 22.98581601 -5.12175516 25.24026979 -11.625 25.5 C-15.34571716 25.47824142 -17.48350025 25.13618912 -20.375 22.75 C-23.24086829 19.66368031 -23.74750135 18.98623214 -24.0625 14.8125 C-23.79096303 10.8073297 -23.31576737 9.21236309 -20.8125 6.125 C-13.81557811 0.80125508 -8.54858335 -0.16574435 0 0 Z " fill="#F7F7F7" transform="translate(704.8125,448.875)"/>
<path d="M0 0 C1.30517578 0.02030273 1.30517578 0.02030273 2.63671875 0.04101562 C4.75808627 0.07598322 6.87912974 0.1297747 9 0.1875 C9.0425963 1.59999325 9.07267796 3.01286663 9.09765625 4.42578125 C9.11578369 5.21251221 9.13391113 5.99924316 9.15258789 6.80981445 C8.78736837 12.50081105 5.76597851 16.76878012 1.6875 20.5625 C-3.59733673 24.69162933 -9.33592994 25.65033079 -15.9140625 25.515625 C-19.10848585 25.01313144 -20.82716917 23.49613275 -23 21.1875 C-24.76498992 17.65752017 -24.64801814 14.03156879 -24 10.1875 C-21.33610218 5.04647211 -17.73265408 2.67351285 -12.28710938 0.75878906 C-8.20508283 -0.26084609 -4.18084091 -0.12523256 0 0 Z " fill="#F8F8F8" transform="translate(475,448.8125)"/>
<path d="M0 0 C2.67744369 1.02177322 4.05984912 2.03367462 6.07173157 4.05552673 C6.73203873 4.70968063 7.39234589 5.36383453 8.07266235 6.03781128 C8.76869064 6.7482106 9.46471893 7.45860992 10.18183899 8.1905365 C10.90723373 8.91684769 11.63262848 9.64315887 12.38000488 10.39147949 C13.90846782 11.92597715 15.43207427 13.46532541 16.9511261 15.00914001 C19.28547858 17.38008492 21.6355214 19.73455404 23.98847961 22.08702087 C25.47054836 23.57891731 26.95170054 25.07172496 28.43183899 26.5655365 C29.13798843 27.27391159 29.84413788 27.98228668 30.57168579 28.71212769 C31.21623215 29.36943375 31.8607785 30.02673981 32.52485657 30.70396423 C33.096017 31.28274826 33.66717743 31.86153229 34.25564575 32.45785522 C35.47480774 33.94444275 35.47480774 33.94444275 35.47480774 35.94444275 C36.05230774 36.19194275 36.62980774 36.43944275 37.22480774 36.69444275 C39.80420753 38.12744263 41.53602366 39.72868951 43.47480774 41.94444275 C43.47480774 42.60444275 43.47480774 43.26444275 43.47480774 43.94444275 C44.05230774 44.19194275 44.62980774 44.43944275 45.22480774 44.69444275 C47.80420753 46.12744263 49.53602366 47.72868951 51.47480774 49.94444275 C51.47480774 50.60444275 51.47480774 51.26444275 51.47480774 51.94444275 C52.05230774 52.19194275 52.62980774 52.43944275 53.22480774 52.69444275 C55.80420753 54.12744263 57.53602366 55.72868951 59.47480774 57.94444275 C59.47480774 58.60444275 59.47480774 59.26444275 59.47480774 59.94444275 C60.28353333 60.27073669 60.28353333 60.27073669 61.1085968 60.60362244 C64.29688546 62.41027548 66.74110321 64.84637451 69.33418274 67.39756775 C69.88342407 67.93540894 70.43266541 68.47325012 70.99855042 69.02738953 C72.154397 70.16439101 73.30739828 71.30429129 74.4577179 72.44688416 C76.21906925 74.18876769 78.00058177 75.90816876 79.78340149 77.6280365 C80.90580815 78.73738679 82.02694618 79.84802242 83.14668274 80.96006775 C83.680979 81.46967041 84.21527527 81.97927307 84.76576233 82.50431824 C87.38682824 85.15764808 88.43590476 86.55027911 88.80781555 90.31846619 C88.64297668 91.61832458 88.64297668 91.61832458 88.47480774 92.94444275 C86.98980774 93.43944275 86.98980774 93.43944275 85.47480774 93.94444275 C85.49543274 93.01631775 85.51605774 92.08819275 85.53730774 91.13194275 C85.63250378 87.92158264 85.63250378 87.92158264 84.47480774 84.94444275 C83.48480774 84.94444275 82.49480774 84.94444275 81.47480774 84.94444275 C81.24793274 84.38756775 81.02105774 83.83069275 80.78730774 83.25694275 C78.61494962 79.42945463 75.50154044 76.73423713 72.03730774 74.06944275 C69.25495784 71.7621282 67.14186773 69.2566509 64.90449524 66.432724 C63.43599143 64.67312608 63.43599143 64.67312608 60.47480774 63.94444275 C59.26387024 62.4561615 59.26387024 62.4561615 58.09980774 60.63194275 C55.908269 57.41024958 53.60868613 55.29485154 50.47480774 52.94444275 C46.26466621 48.96819798 42.47399043 44.61985387 38.61543274 40.307724 C36.31352801 37.76638758 33.93313683 35.33448492 31.47480774 32.94444275 C30.60855774 32.05756775 29.74230774 31.17069275 28.84980774 30.25694275 C26.50395019 27.83168599 26.50395019 27.83168599 23.47480774 25.94444275 C23.47480774 25.28444275 23.47480774 24.62444275 23.47480774 23.94444275 C22.48480774 23.94444275 21.49480774 23.94444275 20.47480774 23.94444275 C20.20668274 23.32569275 19.93855774 22.70694275 19.66230774 22.06944275 C18.51923925 19.64491945 18.51923925 19.64491945 15.47480774 17.94444275 C15.47480774 17.28444275 15.47480774 16.62444275 15.47480774 15.94444275 C14.81480774 15.94444275 14.15480774 15.94444275 13.47480774 15.94444275 C13.47480774 15.28444275 13.47480774 14.62444275 13.47480774 13.94444275 C12.81480774 13.94444275 12.15480774 13.94444275 11.47480774 13.94444275 C11.47480774 13.28444275 11.47480774 12.62444275 11.47480774 11.94444275 C10.48480774 11.61444275 9.49480774 11.28444275 8.47480774 10.94444275 C7.08027649 9.35069275 7.08027649 9.35069275 5.66230774 7.44444275 C3.36744733 4.63194466 2.7500146 4.0208891 -0.90019226 3.00694275 C-1.76644226 2.98631775 -2.63269226 2.96569275 -3.52519226 2.94444275 C-3.6579657 3.58252869 -3.79073914 4.22061462 -3.92753601 4.8780365 C-4.10413757 5.70432556 -4.28073914 6.53061462 -4.46269226 7.38194275 C-4.72372742 8.61750916 -4.72372742 8.61750916 -4.99003601 9.8780365 C-5.52519226 11.94444275 -5.52519226 11.94444275 -6.52519226 12.94444275 C-6.68545127 14.273999 -6.80280229 15.60880883 -6.90019226 16.94444275 C-7.3165724 21.12807178 -8.35737128 24.69464708 -9.77128601 28.635849 C-10.81236633 31.82382034 -11.38127135 35.05107163 -11.99784851 38.34288025 C-13.2801009 44.66865868 -15.17886468 50.84663557 -17.08769226 57.00694275 C-18.85439026 62.83152521 -19.95359898 68.73991977 -21.02128601 74.72569275 C-21.18757507 75.62288025 -21.35386414 76.52006775 -21.52519226 77.44444275 C-21.66956726 78.25913025 -21.81394226 79.07381775 -21.96269226 79.91319275 C-22.52519226 81.94444275 -22.52519226 81.94444275 -24.52519226 83.94444275 C-25.12580459 85.8462306 -25.12580459 85.8462306 -25.52519226 87.94444275 C-26.13225306 90.89302379 -26.32466632 91.74391681 -28.52519226 93.94444275 C-27.87044902 88.86522245 -26.90874338 83.92564388 -25.71269226 78.94444275 C-25.55993835 78.29088806 -25.40718445 77.63733337 -25.24980164 76.963974 C-24.18055888 72.45878516 -23.00327412 67.98839551 -21.79472351 63.5186615 C-19.90755442 56.52462702 -18.16552289 49.49732289 -16.43144226 42.463974 C-15.58503316 39.05672084 -14.7372239 35.64981902 -13.88896179 32.24302673 C-13.30851686 29.90041136 -12.73274065 27.55663471 -12.16142273 25.21177673 C-11.32693621 21.7924694 -10.47467896 18.37801605 -9.61894226 14.963974 C-9.36777649 13.91611221 -9.11661072 12.86825043 -8.85783386 11.78863525 C-8.61077698 10.8162944 -8.36372009 9.84395355 -8.10917664 8.84214783 C-7.8991803 7.99026382 -7.68918396 7.13837982 -7.4728241 6.26068115 C-5.93564735 2.50345426 -4.28707901 -0.09432087 0 0 Z " fill="#D794C0" transform="translate(623.5251922607422,279.05555725097656)"/>
<path d="M0 0 C1.42962907 2.69180026 2.44570646 5.23998506 3.2265625 8.18359375 C3.56155762 9.43052002 3.56155762 9.43052002 3.90332031 10.70263672 C4.14147461 11.6051416 4.37962891 12.50764648 4.625 13.4375 C5.15303028 15.40771716 5.68171162 17.37775991 6.2109375 19.34765625 C6.63777832 20.9411792 6.63777832 20.9411792 7.07324219 22.56689453 C8.06896207 26.25546485 9.08199595 29.93906309 10.1015625 33.62109375 C10.27978546 34.26487473 10.45800842 34.9086557 10.64163208 35.57194519 C11.52135775 38.74801908 12.40230512 41.92375167 13.28369141 45.09936523 C18.53068603 64.06395022 18.53068603 64.06395022 17 68 C15.5 70.375 15.5 70.375 13 72 C7.02320816 72.05266232 1.14923262 70.41347824 -4.5625 68.8125 C-6.25091107 68.35402632 -7.93973296 67.89706361 -9.62890625 67.44140625 C-10.94979248 67.08393311 -10.94979248 67.08393311 -12.29736328 66.71923828 C-16.8510914 65.50737893 -21.42574465 64.38140964 -26 63.25 C-42.02673941 59.27182651 -58.01103778 55.12680628 -74 51 C-74 50.67 -74 50.34 -74 50 C-71.72858891 50.11402064 -69.45785448 50.24158505 -67.1875 50.375 C-65.92292969 50.44460938 -64.65835937 50.51421875 -63.35546875 50.5859375 C-60 51 -60 51 -57 53 C-54.78423658 53.53775199 -52.55195377 54.00897749 -50.3125 54.4375 C-46.2735079 55.25526099 -42.44194044 56.06317806 -38.625 57.625 C-34.61981719 59.14420727 -31.23763804 59.55393284 -27 60 C-26.67 60.33 -26.34 60.66 -26 61 C-24.02490127 61.2094361 -22.04428318 61.36803822 -20.0625 61.5 C-14.22008253 61.88995873 -14.22008253 61.88995873 -12 63 C-12 63.66 -12 64.32 -12 65 C-10.5459375 65.185625 -10.5459375 65.185625 -9.0625 65.375 C3.11873508 67.11873508 3.11873508 67.11873508 5 69 C7.67058851 69.14115161 10.32432238 69.04247107 13 69 C13.33 68.34 13.66 67.68 14 67 C14.66 67 15.32 67 16 67 C15.35720991 64.20760027 14.71091335 61.41609416 14.0625 58.625 C13.88009766 57.8309375 13.69769531 57.036875 13.50976562 56.21875 C13.33251953 55.45820313 13.15527344 54.69765625 12.97265625 53.9140625 C12.81031494 53.2123291 12.64797363 52.5105957 12.48071289 51.78759766 C12.0411926 49.91605426 12.0411926 49.91605426 11 48 C10.960008 46.00039988 10.95653201 43.99952758 11 42 C10.34 42 9.68 42 9 42 C6.71937172 38.57905758 6.78074993 37.31812778 6.875 33.3125 C6.89304687 32.31863281 6.91109375 31.32476562 6.9296875 30.30078125 C6.95289063 29.54152344 6.97609375 28.78226562 7 28 C6.34 28 5.68 28 5 28 C4.80664062 26.87980469 4.61328125 25.75960938 4.4140625 24.60546875 C4.1514114 23.13274651 3.88837017 21.66009381 3.625 20.1875 C3.49867188 19.44951172 3.37234375 18.71152344 3.2421875 17.95117188 C2.59836518 14.39405354 2.03003944 12.04505916 0 9 C-0.1953125 6.73828125 -0.1953125 6.73828125 -0.125 4.3125 C-0.10695313 3.50425781 -0.08890625 2.69601562 -0.0703125 1.86328125 C-0.04710937 1.24839844 -0.02390625 0.63351562 0 0 Z " fill="#99E0D5" transform="translate(553,279)"/>
<path d="M0 0 C0.98484375 0.11085937 1.9696875 0.22171875 2.984375 0.3359375 C3.73203125 0.43132812 4.4796875 0.52671875 5.25 0.625 C5.58 1.945 5.91 3.265 6.25 4.625 C5.569375 4.295 4.88875 3.965 4.1875 3.625 C0.7196014 2.44443878 -2.10946032 2.41496886 -5.75 2.625 C-6.98492612 3.63837001 -6.98492612 3.63837001 -6.87304783 5.7314539 C-6.87212604 6.66707377 -6.87120424 7.60269365 -6.87025452 8.56666565 C-6.87162918 9.63663788 -6.87300385 10.70661011 -6.87442017 11.80900574 C-6.87082489 12.99295425 -6.86722961 14.17690277 -6.86352539 15.39672852 C-6.86367142 16.635578 -6.86381744 17.87442749 -6.8639679 19.15081787 C-6.86338892 22.55769833 -6.85835959 25.96451884 -6.85139394 29.37138867 C-6.84515993 32.92816826 -6.84455656 36.48494858 -6.84336853 40.04173279 C-6.84025535 46.78136582 -6.83204215 53.52098271 -6.82201904 60.26060861 C-6.81085748 67.93158398 -6.80534735 75.60256011 -6.80032361 83.27354157 C-6.78985952 99.05737041 -6.77226035 114.84118313 -6.75 130.625 C-7.41 130.625 -8.07 130.625 -8.75 130.625 C-9.76677995 123.92280759 -9.8856051 117.38125862 -9.86352539 110.609375 C-9.86367142 109.42802475 -9.86381744 108.2466745 -9.8639679 107.02952576 C-9.86327408 103.14466483 -9.85550656 99.2598525 -9.84765625 95.375 C-9.84523268 92.67358426 -9.84431794 89.97216856 -9.84336853 87.27075195 C-9.84026908 80.89967756 -9.83207448 74.52862047 -9.82201904 68.15755367 C-9.81081473 60.89995121 -9.8053366 53.64234789 -9.80032361 46.38473892 C-9.78989062 31.46481633 -9.77231818 16.5449099 -9.75 1.625 C-6.16195019 -0.34372396 -4.09222221 -0.48716931 0 0 Z " fill="#FEF6E6" transform="translate(580.75,144.375)"/>
<path d="M0 0 C0.33 0 0.66 0 1 0 C0.67 3.63 0.34 7.26 0 11 C0.66 11 1.32 11 2 11 C2 12.65 2 14.3 2 16 C1.34 15.67 0.68 15.34 0 15 C-0.33 15.99 -0.66 16.98 -1 18 C1.65266085 18.88422028 3.35688217 19.15436705 6.08984375 19.24609375 C6.87423828 19.27896484 7.65863281 19.31183594 8.46679688 19.34570312 C10.10989079 19.40675088 11.75312794 19.46406135 13.39648438 19.51757812 C14.18216797 19.55173828 14.96785156 19.58589844 15.77734375 19.62109375 C16.49140381 19.6461499 17.20546387 19.67120605 17.94116211 19.69702148 C20.28351909 20.04172266 21.90893768 20.91826864 24 22 C26.82085728 22.24073194 26.82085728 22.24073194 29.75 22.125 C30.73484375 22.10695313 31.7196875 22.08890625 32.734375 22.0703125 C33.48203125 22.04710937 34.2296875 22.02390625 35 22 C35 21.34 35 20.68 35 20 C35.99580078 19.83564453 35.99580078 19.83564453 37.01171875 19.66796875 C42.05544594 18.76230679 45.6088822 17.68346088 50 15 C51.99960012 14.960008 54.00047242 14.95653201 56 15 C56.99 14.34 57.98 13.68 59 13 C60.96710167 12.60159966 62.94942111 12.27523466 64.9375 12 C69.04763219 11.48101601 69.04763219 11.48101601 72.87890625 10.04296875 C76.09029539 8.4638879 79.5081306 7.95457381 83 7.3125 C84.06734375 7.09883789 84.06734375 7.09883789 85.15625 6.88085938 C88.68642913 6.21895079 91.58836758 5.67621555 95 7 C83.3726562 10.27708335 71.71185401 13.42064725 60.03637695 16.52151489 C50.76482718 18.98475844 41.5088796 21.49468452 32.2734375 24.08984375 C30.65308594 24.54037109 30.65308594 24.54037109 29 25 C27.85917969 25.35384766 27.85917969 25.35384766 26.6953125 25.71484375 C23.92670184 26.18053172 22.27107098 24.47619614 20 23 C16.96002217 22.01872605 14.19852965 21.88293579 11.015625 21.90234375 C10.08105469 21.90556641 9.14648438 21.90878906 8.18359375 21.91210938 C7.21550781 21.92048828 6.24742187 21.92886719 5.25 21.9375 C4.26644531 21.94201172 3.28289063 21.94652344 2.26953125 21.95117188 C-0.15370791 21.96293517 -2.57682273 21.97937316 -5 22 C-4.54537897 19.64506308 -4.086405 17.29110915 -3.625 14.9375 C-3.49867188 14.28072266 -3.37234375 13.62394531 -3.2421875 12.94726562 C-2.37615493 8.55215035 -1.28373447 4.29213829 0 0 Z " fill="#D593BE" transform="translate(594,373)"/>
<path d="M0 0 C4.58520703 0.09592483 7.84456411 2.52819416 11.5703125 4.9921875 C13.98460028 6.49044326 16.36272822 7.4647258 19 8.5 C20.8125 10.125 20.8125 10.125 22 11.5 C18.71592276 10.73734699 15.55899135 9.73210211 12.375 8.625 C11.41335938 8.29757813 10.45171875 7.97015625 9.4609375 7.6328125 C7 6.5 7 6.5 5 3.5 C1.93443402 2.76656572 1.93443402 2.76656572 -1 2.5 C-1.33 4.15 -1.66 5.8 -2 7.5 C-2.66 7.5 -3.32 7.5 -4 7.5 C-4 47.1 -4 86.7 -4 127.5 C-4.33 127.5 -4.66 127.5 -5 127.5 C-5.04667541 111.23657497 -5.08196691 94.97317159 -5.10362434 78.70969582 C-5.11394656 71.15865467 -5.12802488 63.60765509 -5.15087891 56.05664062 C-5.17078393 49.47685894 -5.18370956 42.89710734 -5.18817699 36.31729639 C-5.19078929 32.83180986 -5.19694878 29.34640945 -5.21146011 25.86095047 C-5.22751037 21.97450368 -5.22798155 18.08814191 -5.22705078 14.20166016 C-5.23424133 13.04000839 -5.24143188 11.87835663 -5.24884033 10.6815033 C-5.246091 9.62698471 -5.24334167 8.57246613 -5.24050903 7.48599243 C-5.24235262 6.56604303 -5.24419621 5.64609364 -5.24609566 4.69826698 C-4.83943094 1.06570545 -3.46442277 0.5774038 0 0 Z " fill="#EFE092" transform="translate(578,145.5)"/>
<path d="M0 0 C0.66 0 1.32 0 2 0 C2 0.66 2 1.32 2 2 C2.66 2 3.32 2 4 2 C4.1357675 3.58093717 4.23234745 5.16526952 4.3125 6.75 C4.37050781 7.63171875 4.42851563 8.5134375 4.48828125 9.421875 C4 12 4 12 1.93359375 14.3359375 C-1.80300379 16.45549882 -4.00651734 16.2922462 -8.25 15.875 C-10.11398437 15.71644531 -10.11398437 15.71644531 -12.015625 15.5546875 C-13.00046875 15.37164062 -13.9853125 15.18859375 -15 15 C-15.33 14.34 -15.66 13.68 -16 13 C-18.35599235 12.53248212 -18.35599235 12.53248212 -21.0625 12.375 C-21.98160156 12.30023438 -22.90070312 12.22546875 -23.84765625 12.1484375 C-24.55792969 12.09945313 -25.26820313 12.05046875 -26 12 C-26.33 11.01 -26.66 10.02 -27 9 C-29.97 8.67 -32.94 8.34 -36 8 C-36 7.67 -36 7.34 -36 7 C-28.58738839 7.35298151 -22.08225424 8.99173369 -15.06665039 11.2722168 C-10.92512245 12.58351726 -7.40248172 13.4043761 -3 13 C-0.37716666 11.71107713 -0.37716666 11.71107713 1 9 C1.02646495 5.92477226 0.59220351 3.01251353 0 0 Z " fill="#E3FBF9" transform="translate(569,337)"/>
<path d="M0 0 C0.99 0.33 1.98 0.66 3 1 C2.01 3.97 1.02 6.94 0 10 C1.12148438 10.18175781 1.12148438 10.18175781 2.265625 10.3671875 C3.74289062 10.61855469 3.74289062 10.61855469 5.25 10.875 C6.71179688 11.11863281 6.71179688 11.11863281 8.203125 11.3671875 C11 12 11 12 12.96875 13 C15.67594931 14.33277504 18.27416023 14.67215482 21.25 15.125 C22.32765625 15.29257812 23.4053125 15.46015625 24.515625 15.6328125 C25.74539063 15.81457031 25.74539063 15.81457031 27 16 C27 16.66 27 17.32 27 18 C27.99 18.33 28.98 18.66 30 19 C23.22296287 18.32635439 16.78057386 16.8723502 10.1875 15.1875 C8.63385742 14.8152832 8.63385742 14.8152832 7.04882812 14.43554688 C6.05689453 14.18224609 5.06496094 13.92894531 4.04296875 13.66796875 C2.69755005 13.33188599 2.69755005 13.33188599 1.32495117 12.98901367 C-1.47333649 11.79864684 -2.50039642 10.61940713 -4 8 C-3.8517636 4.96115373 -3.42925609 3.49793707 -1.4375 1.1875 C-0.963125 0.795625 -0.48875 0.40375 0 0 Z " fill="#97DFD5" transform="translate(449,310)"/>
<path d="M0 0 C0.33 0 0.66 0 1 0 C0.67 3.63 0.34 7.26 0 11 C0.66 11 1.32 11 2 11 C2 12.65 2 14.3 2 16 C1.34 15.67 0.68 15.34 0 15 C-0.33 15.99 -0.66 16.98 -1 18 C1.65266085 18.88422028 3.35688217 19.15436705 6.08984375 19.24609375 C6.87423828 19.27896484 7.65863281 19.31183594 8.46679688 19.34570312 C10.10989079 19.40675088 11.75312794 19.46406135 13.39648438 19.51757812 C14.18216797 19.55173828 14.96785156 19.58589844 15.77734375 19.62109375 C16.49140381 19.6461499 17.20546387 19.67120605 17.94116211 19.69702148 C20.27890916 20.04104426 21.95102062 20.84771923 24 22 C24 22.66 24 23.32 24 24 C22.906875 23.67257812 21.81375 23.34515625 20.6875 23.0078125 C15.45122869 21.69874467 10.36757298 21.77875386 5 21.875 C4.03449219 21.88402344 3.06898438 21.89304687 2.07421875 21.90234375 C-0.28412099 21.92569365 -2.64192286 21.95843953 -5 22 C-4.54537897 19.64506308 -4.086405 17.29110915 -3.625 14.9375 C-3.49867188 14.28072266 -3.37234375 13.62394531 -3.2421875 12.94726562 C-2.37615493 8.55215035 -1.28373447 4.29213829 0 0 Z " fill="#C886B0" transform="translate(594,373)"/>
<path d="M0 0 C2.125 0.375 2.125 0.375 4 1 C-1.625 5 -1.625 5 -5 5 C-5 5.66 -5 6.32 -5 7 C-5.58007812 7.31453125 -6.16015625 7.6290625 -6.7578125 7.953125 C-10.40997161 9.95397785 -14.01122001 11.94046001 -17.4375 14.3125 C-20 16 -20 16 -22 16 C-22 16.66 -22 17.32 -22 18 C-22.99 18 -23.98 18 -25 18 C-24.67 16.35 -24.34 14.7 -24 13 C-18.375 11 -18.375 11 -15 11 C-14.938125 10.401875 -14.87625 9.80375 -14.8125 9.1875 C-13.63365068 6.01367491 -12.01955491 5.44413495 -9 4 C-6.66816393 3.32811503 -4.33498858 2.66084583 -2 2 C-1.34 1.34 -0.68 0.68 0 0 Z " fill="#F0DD81" transform="translate(646,233)"/>
<path d="M0 0 C3.76002782 0.3957924 5.58311916 1.11422181 8 4 C8.76782227 5.81835938 8.76782227 5.81835938 9.31640625 7.84375 C9.52241455 8.59092285 9.72842285 9.3380957 9.94067383 10.10791016 C10.14587646 10.8972998 10.3510791 11.68668945 10.5625 12.5 C10.77865967 13.30356934 10.99481934 14.10713867 11.2175293 14.93505859 C12.79284951 20.90437771 14.0981906 26.88923181 15 33 C14.34 33 13.68 33 13 33 C12.87882813 32.32453125 12.75765625 31.6490625 12.6328125 30.953125 C12.46523438 30.06109375 12.29765625 29.1690625 12.125 28.25 C11.96257813 27.36828125 11.80015625 26.4865625 11.6328125 25.578125 C11.02683057 23.10930972 10.13666843 21.25550677 9 19 C8.59287196 17.38745363 8.2406149 15.76029214 7.9375 14.125 C7.69193359 12.81789062 7.69193359 12.81789062 7.44140625 11.484375 C6.93949259 8.65944501 6.44749092 5.83410917 6 3 C1.6822542 3.50797009 -2.03302114 4.19682779 -6 6 C-4 4 -2 2 0 0 Z " fill="#98DED3" transform="translate(533,227)"/>
<path d="M0 0 C0.66 0.33 1.32 0.66 2 1 C2 1.66 2 2.32 2 3 C-0.90600261 4.25664978 -2.79604584 5 -6 5 C-6 5.66 -6 6.32 -6 7 C-6.99 7.33 -7.98 7.66 -9 8 C-9.226875 8.61875 -9.45375 9.2375 -9.6875 9.875 C-11.54581882 12.88370665 -13.83958866 13.26237146 -17.125 14.2890625 C-19.20446121 14.9308084 -19.20446121 14.9308084 -21 17 C-23.625 17.125 -23.625 17.125 -26 17 C-23.0098979 13.66488612 -20.10501426 11.78478881 -16 10 C-15.34 10 -14.68 10 -14 10 C-14 9.34 -14 8.68 -14 8 C-12.73542969 7.38511719 -12.73542969 7.38511719 -11.4453125 6.7578125 C-10.34960938 6.21898437 -9.25390625 5.68015625 -8.125 5.125 C-7.03445313 4.59132812 -5.94390625 4.05765625 -4.8203125 3.5078125 C-1.96117453 2.15464063 -1.96117453 2.15464063 0 0 Z " fill="#FDF5D2" transform="translate(655,230)"/>
<path d="M0 0 C0 0.66 0 1.32 0 2 C-1.134375 2.268125 -2.26875 2.53625 -3.4375 2.8125 C-8.04620455 3.95849272 -12.51603139 5.44306645 -17 7 C-17.33 8.98 -17.66 10.96 -18 13 C-20.04119788 11.38405168 -22.04072937 9.7143618 -24 8 C-24 7.34 -24 6.68 -24 6 C-21.41710408 5.18608745 -18.83371003 4.37382071 -16.25 3.5625 C-15.52039063 3.33240234 -14.79078125 3.10230469 -14.0390625 2.86523438 C-13.33007812 2.64287109 -12.62109375 2.42050781 -11.890625 2.19140625 C-11.24125977 1.98717041 -10.59189453 1.78293457 -9.92285156 1.57250977 C-6.38786616 0.52000332 -3.76121709 0 0 0 Z " fill="#FAE3F5" transform="translate(645,392)"/>
<path d="M0 0 C0.33 0.66 0.66 1.32 1 2 C-0.43257963 4.72872311 -1.81722366 6.81722366 -4 9 C-4.96303511 10.14188449 -5.92090417 11.28813585 -6.875 12.4375 C-9.05647702 15.00394355 -11.15993144 17.14303209 -14 19 C-14.65356445 17.18847656 -14.65356445 17.18847656 -15 15 C-13.12465002 12.69829859 -11.3305279 10.76980984 -9.1875 8.75 C-8.62740234 8.19570312 -8.06730469 7.64140625 -7.49023438 7.0703125 C-3.29460437 3 -3.29460437 3 -1 3 C-0.67 2.01 -0.34 1.02 0 0 Z " fill="#8BE6D6" transform="translate(513,246)"/>
<path d="M0 0 C3.9424438 2.62829586 4.78678782 5.60210585 6 10 C6.56756498 13.08219314 7.05029809 16.16028693 7.47265625 19.265625 C7.8600629 21.95387544 7.8600629 21.95387544 9.01953125 24 C10.29372724 26.59915677 10.41951455 28.8732037 10.625 31.75 C10.69976563 32.73484375 10.77453125 33.7196875 10.8515625 34.734375 C10.90054688 35.48203125 10.94953125 36.2296875 11 37 C8.80935489 33.71403233 8.08810403 31.09754536 7.08984375 27.28515625 C6.83129356 26.30693153 6.83129356 26.30693153 6.56752014 25.3089447 C6.01889938 23.22814265 5.47813236 21.14539023 4.9375 19.0625 C4.57017148 17.66457943 4.2023384 16.26679133 3.83398438 14.86914062 C1.2202291 4.93223803 1.2202291 4.93223803 0 0 Z " fill="#DFFCFB" transform="translate(549,263)"/>
<path d="M0 0 C1.32 0.33 2.64 0.66 4 1 C4 1.66 4 2.32 4 3 C4.99 3.33 5.98 3.66 7 4 C7.43695709 9.33087655 7.43695709 9.33087655 7 12 C4.59140121 14.02829372 3.16955691 15 0 15 C0 13 0 13 2 10.875 C2.66 10.25625 3.32 9.6375 4 9 C2.68 8.67 1.36 8.34 0 8 C0 5.36 0 2.72 0 0 Z " fill="#EEDC7E" transform="translate(677,202)"/>
<path d="M0 0 C2.83392926 -0.08174796 5.66544819 -0.14084985 8.5 -0.1875 C9.29148437 -0.21263672 10.08296875 -0.23777344 10.8984375 -0.26367188 C16.62130318 -0.33403498 20.75203857 0.70702602 26 3 C22.85069107 4.04976964 20.61185544 4.10131595 17.3125 4.0625 C16.31863281 4.05347656 15.32476563 4.04445313 14.30078125 4.03515625 C13.16189453 4.01775391 13.16189453 4.01775391 12 4 C12 3.67 12 3.34 12 3 C8.04 3 4.08 3 0 3 C0 2.01 0 1.02 0 0 Z " fill="#3E1E31" transform="translate(592,394)"/>
<path d="M0 0 C5.52454478 4.26896642 5.78209313 13.56064135 7 20 C7.66 20 8.32 20 9 20 C9 23.63 9 27.26 9 31 C6.94647065 27.91970597 6.22042269 25.64225231 5.2734375 22.08984375 C4.9640625 20.93548828 4.6546875 19.78113281 4.3359375 18.59179688 C4.01882813 17.38587891 3.70171875 16.17996094 3.375 14.9375 C3.05015625 13.72771484 2.7253125 12.51792969 2.390625 11.27148438 C0 2.28655134 0 2.28655134 0 0 Z " fill="#DDFDF8" transform="translate(560,303)"/>
<path d="M0 0 C0.66 0 1.32 0 2 0 C2.98120464 3.05263664 2.98120464 4.94736336 2 8 C3.98 7.67 5.96 7.34 8 7 C5.28817788 9.60334924 4.10866187 9.99456691 0.25 10.1875 C-1.35875 10.0946875 -1.35875 10.0946875 -3 10 C-3 7.36 -3 4.72 -3 2 C-2.01 2 -1.02 2 0 2 C0 1.34 0 0.68 0 0 Z " fill="#F2DC7E" transform="translate(577,265)"/>
<path d="M0 0 C3.96202219 0.56600317 7.00804484 1.26449814 10 4 C10.43210431 7.04093407 10.28778323 9.9494978 10 13 C8.03533587 14.06775224 6.03144641 15.06553465 4 16 C3.34 15.67 2.68 15.34 2 15 C3.65 14.34 5.3 13.68 7 13 C6.87625 11.700625 6.7525 10.40125 6.625 9.0625 C6.55539062 8.33160156 6.48578125 7.60070312 6.4140625 6.84765625 C6.27742187 6.23792969 6.14078125 5.62820312 6 5 C5.34 4.67 4.68 4.34 4 4 C4 3.34 4 2.68 4 2 C2.68 1.67 1.36 1.34 0 1 C0 0.67 0 0.34 0 0 Z " fill="#FCF8D2" transform="translate(677,201)"/>
<path d="M0 0 C2 0 2 0 3.625 1.0625 C5.75349623 4.06174469 5.37651698 6.42308866 5 10 C3.625 12.4375 3.625 12.4375 2 14 C1.34 14 0.68 14 0 14 C0 9.38 0 4.76 0 0 Z " fill="#F4F4F4" transform="translate(338,395)"/>
<path d="M0 0 C1.98 0.66 3.96 1.32 6 2 C2.97836521 5.37028496 0.05702536 7.05262783 -4 9 C-6.04407725 10.27754828 -8.01556058 11.62979183 -10 13 C-10.66 12.67 -11.32 12.34 -12 12 C-11.67 11.34 -11.34 10.68 -11 10 C-8.4375 9.375 -8.4375 9.375 -6 9 C-6 8.34 -6 7.68 -6 7 C-5.34 7 -4.68 7 -4 7 C-4 6.34 -4 5.68 -4 5 C-2.68 5 -1.36 5 0 5 C0 3.35 0 1.7 0 0 Z " fill="#F2DD86" transform="translate(597,259)"/>
<path d="M0 0 C3.36720387 1.39332574 4.9859524 2.9789286 7 6 C6.01 6.99 5.02 7.98 4 9 C3.67 8.01 3.34 7.02 3 6 C1.02 6.99 1.02 6.99 -1 8 C-1.625 5.6875 -1.625 5.6875 -2 3 C-1.34 2.01 -0.68 1.02 0 0 Z " fill="#EFEFEF" transform="translate(207,440)"/>
<path d="M0 0 C3.57040303 0.65902299 6.17732255 2.16229158 9.25 4.0625 C10.14203125 4.61035156 11.0340625 5.15820312 11.953125 5.72265625 C12.96632813 6.35494141 12.96632813 6.35494141 14 7 C13.01 7.33 12.02 7.66 11 8 C10.21625 7.525625 9.4325 7.05125 8.625 6.5625 C5.70851587 4.82649754 4.32390268 4.65011551 1 5 C0.01 5.33 -0.98 5.66 -2 6 C-2 4.68 -2 3.36 -2 2 C-1.34 2 -0.68 2 0 2 C0 1.34 0 0.68 0 0 Z " fill="#F5DB7B" transform="translate(647,185)"/>
<path d="M0 0 C1.3077036 2.6154072 0.76582573 3.5640522 0.00390625 6.3515625 C-0.22490234 7.20234375 -0.45371094 8.053125 -0.68945312 8.9296875 C-0.93630859 9.81914062 -1.18316406 10.70859375 -1.4375 11.625 C-1.68048828 12.5221875 -1.92347656 13.419375 -2.17382812 14.34375 C-2.77621451 16.56431158 -3.38518001 18.78285481 -4 21 C-4.66 20.67 -5.32 20.34 -6 20 C-6.39244879 15.81387952 -5.32642463 12.80944436 -3.796875 9 C-3.08532601 7.21415155 -2.47293622 5.38952734 -1.875 3.5625 C-1 1 -1 1 0 0 Z " fill="#FCE4F8" transform="translate(611,305)"/>
<path d="M0 0 C8.54730344 1.32570421 16.72241148 3.51068141 25 6 C25 6.33 25 6.66 25 7 C19.67192496 6.55007366 15.08483863 5.69494621 10 4 C7.00858966 3.55573114 4.01302913 3.25443357 1 3 C0.67 2.01 0.34 1.02 0 0 Z " fill="#DFFCFB" transform="translate(492,333)"/>
<path d="M0 0 C0.66 0.33 1.32 0.66 2 1 C-3.19356856 6.49034391 -7.57459242 9.31877564 -15 11 C-15.66 10.67 -16.32 10.34 -17 10 C-15.2335343 8.9923048 -13.46166177 7.99408286 -11.6875 7 C-10.70136719 6.443125 -9.71523438 5.88625 -8.69921875 5.3125 C-6 4 -6 4 -3 4 C-3 3.34 -3 2.68 -3 2 C-2.01 1.34 -1.02 0.68 0 0 Z " fill="#FEF8E1" transform="translate(627,247)"/>
<path d="M0 0 C0.99 0 1.98 0 3 0 C3.33 0.99 3.66 1.98 4 3 C2.59554165 5.2636564 0.8032087 7.0208685 -1 9 C-2.32 7.68 -3.64 6.36 -5 5 C-4.67 4.34 -4.34 3.68 -4 3 C-3.34 3 -2.68 3 -2 3 C-1.67 2.34 -1.34 1.68 -1 1 C-0.67 0.67 -0.34 0.34 0 0 Z " fill="#2C2C2C" transform="translate(712,478)"/>
<path d="M0 0 C1.65 0 3.3 0 5 0 C1.5796674 2.79337508 -1.89389738 5.41565861 -5.5625 7.875 C-6.49191406 8.51179687 -7.42132812 9.14859375 -8.37890625 9.8046875 C-11 11 -11 11 -13.33984375 10.1953125 C-13.88769531 9.80085937 -14.43554688 9.40640625 -15 9 C-13.7625 8.566875 -12.525 8.13375 -11.25 7.6875 C-8.05909498 6.50359531 -5.66007502 5.14852213 -3 3 C-2.34 3 -1.68 3 -1 3 C-0.67 2.01 -0.34 1.02 0 0 Z " fill="#F0DC89" transform="translate(672,217)"/>
<path d="M0 0 C0.68707555 2.49064888 1 4.37886292 1 7 C-3.455 8.485 -3.455 8.485 -8 10 C-5.77502475 5.55004949 -3.55366005 3.39915309 0 0 Z " fill="#E0E0E0" transform="translate(105,473)"/>
<path d="M0 0 C0 0.66 0 1.32 0 2 C-4.38461538 5 -4.38461538 5 -7 5 C-7 5.66 -7 6.32 -7 7 C-7.99 7.495 -7.99 7.495 -9 8 C-9.65555119 10.52733235 -9.65555119 10.52733235 -10 13 C-11.32 13.33 -12.64 13.66 -14 14 C-12.36847322 8.61596163 -8.8288036 3.64924588 -3.9296875 0.79296875 C-2 0 -2 0 0 0 Z " fill="#DFDFDF" transform="translate(587,417)"/>
<path d="M0 0 C4.29 0 8.58 0 13 0 C13.33 0.66 13.66 1.32 14 2 C12.68 2 11.36 2 10 2 C9.67 2.99 9.34 3.98 9 5 C8.1646875 4.566875 8.1646875 4.566875 7.3125 4.125 C4.91505355 2.9586747 2.48403061 1.9660119 0 1 C0 0.67 0 0.34 0 0 Z " fill="#FBF6E9" transform="translate(663,193)"/>
<path d="M0 0 C0.99 0 1.98 0 3 0 C3 0.99 3 1.98 3 3 C2.01 3.495 2.01 3.495 1 4 C1.66 4.33 2.32 4.66 3 5 C2.67 5.66 2.34 6.32 2 7 C-4.75 4.25 -4.75 4.25 -7 2 C-4.69 2 -2.38 2 0 2 C0 1.34 0 0.68 0 0 Z " fill="#FDFADE" transform="translate(594,147)"/>
<path d="M0 0 C0 0.66 0 1.32 0 2 C-3 4 -3 4 -6 4 C-6 4.66 -6 5.32 -6 6 C-12.625 9 -12.625 9 -16 9 C-13.44018031 6.0135437 -10.51345275 4.68645732 -7 3 C-6.0925 2.443125 -5.185 1.88625 -4.25 1.3125 C-2 0 -2 0 0 0 Z " fill="#FCF7CD" transform="translate(607,260)"/>
<path d="M0 0 C0.99 0.33 1.98 0.66 3 1 C-0.61328125 5.6875 -0.61328125 5.6875 -2 7 C-2.99 7 -3.98 7 -5 7 C-5.66 6.34 -6.32 5.68 -7 5 C-2.25 1.125 -2.25 1.125 0 0 Z " fill="#EEEEEE" transform="translate(355,417)"/>
<path d="M0 0 C4.03174806 0.27489191 5.56894631 0.53491576 8.375 3.5625 C8.91125 4.366875 9.4475 5.17125 10 6 C7.36 6 4.72 6 2 6 C2 5.01 2 4.02 2 3 C1.34 2.67 0.68 2.34 0 2 C0 1.34 0 0.68 0 0 Z " fill="#E7E7E7" transform="translate(591,417)"/>
<path d="M0 0 C1.65 0.33 3.3 0.66 5 1 C4.04578192 2.14926266 3.08647955 3.29430541 2.125 4.4375 C1.59132813 5.07558594 1.05765625 5.71367187 0.5078125 6.37109375 C-1 8 -1 8 -3 9 C-2.625 6.0625 -2.625 6.0625 -2 3 C-1.34 2.67 -0.68 2.34 0 2 C0 1.34 0 0.68 0 0 Z " fill="#E4E4E4" transform="translate(572,400)"/>
<path d="M0 0 C4.62 0 9.24 0 14 0 C13.67 0.66 13.34 1.32 13 2 C10.05859375 2.4140625 10.05859375 2.4140625 6.4375 2.625 C5.23996094 2.69976562 4.04242187 2.77453125 2.80859375 2.8515625 C1.88175781 2.90054687 0.95492187 2.94953125 0 3 C0 2.01 0 1.02 0 0 Z " fill="#311B28" transform="translate(592,394)"/>
<path d="M0 0 C5.02692063 0.45699278 8.14896261 2.99241748 12 6 C10 7 10 7 7 6.3125 C4 5 4 5 2.75 2.9375 C2.37875 1.9784375 2.37875 1.9784375 2 1 C1.34 0.67 0.68 0.34 0 0 Z " fill="#EEDD85" transform="translate(619,169)"/>
<path d="M0 0 C3.63 0.33 7.26 0.66 11 1 C11.33 2.32 11.66 3.64 12 5 C11.34 4.67 10.68 4.34 10 4 C6.13938967 2.71312989 3.05849717 2.86242382 -1 3 C-0.67 2.01 -0.34 1.02 0 0 Z " fill="#FDF8D9" transform="translate(575,144)"/>
<path d="M0 0 C0 2.31 0 4.62 0 7 C-2.04119788 5.38405168 -4.04072937 3.7143618 -6 2 C-6 1.34 -6 0.68 -6 0 C-3.50907189 -1.24546405 -2.58919267 -0.7767578 0 0 Z " fill="#F2E9EF" transform="translate(627,398)"/>
<path d="M0 0 C3.23828114 0.65951263 5.80549593 1.83215228 8.6875 3.4375 C9.47511719 3.86933594 10.26273438 4.30117187 11.07421875 4.74609375 C13 6 13 6 14 8 C13.13375 7.690625 12.2675 7.38125 11.375 7.0625 C8.23849262 6.07508101 5.24932587 5.46418941 2 5 C2 4.01 2 3.02 2 2 C1.34 1.34 0.68 0.68 0 0 Z " fill="#EFD982" transform="translate(605,161)"/>
<path d="M0 0 C-5.83799592 1.69832609 -10.93107371 2.25287193 -17 2 C-17 1.67 -17 1.34 -17 1 C-14.92118505 0.44124338 -12.83669506 -0.09643187 -10.75 -0.625 C-9.58984375 -0.92664063 -8.4296875 -1.22828125 -7.234375 -1.5390625 C-3.88384275 -2.01655381 -2.73177617 -1.87978657 0 0 Z " fill="#F9E7F5" transform="translate(691,382)"/>
<path d="M0 0 C0.99 0.33 1.98 0.66 3 1 C-1.30769231 6.78461538 -1.30769231 6.78461538 -4.8125 7.875 C-5.8953125 7.936875 -5.8953125 7.936875 -7 8 C-6.02133662 6.85373678 -5.04205413 5.70800212 -4.0625 4.5625 C-3.51722656 3.92441406 -2.97195313 3.28632813 -2.41015625 2.62890625 C-1.63204305 1.73008851 -0.84063472 0.84063472 0 0 Z " fill="#92E2D5" transform="translate(465,294)"/>
<path d="M0 0 C0 2 0 2 -1.6796875 3.69140625 C-2.40414063 4.30886719 -3.12859375 4.92632812 -3.875 5.5625 C-4.59429687 6.18253906 -5.31359375 6.80257813 -6.0546875 7.44140625 C-8 9 -8 9 -10 10 C-9.43867066 6.4628562 -8.30442253 5.00738321 -5.5625 2.75 C-4.94503906 2.22921875 -4.32757813 1.7084375 -3.69140625 1.171875 C-2 0 -2 0 0 0 Z " fill="#E5FDFC" transform="translate(456,303)"/>
<path d="M0 0 C0.66 0 1.32 0 2 0 C3.5078125 1.53125 3.5078125 1.53125 5.125 3.5 C5.66382813 4.1496875 6.20265625 4.799375 6.7578125 5.46875 C7.16773438 5.9740625 7.57765625 6.479375 8 7 C7.34 7.66 6.68 8.32 6 9 C3.69 6.69 1.38 4.38 -1 2 C-0.67 1.34 -0.34 0.68 0 0 Z " fill="#F9EBF5" transform="translate(642,294)"/>
<path d="M0 0 C0 2 0 2 -1.6796875 3.69140625 C-2.40414063 4.30886719 -3.12859375 4.92632812 -3.875 5.5625 C-4.59429687 6.18253906 -5.31359375 6.80257813 -6.0546875 7.44140625 C-8 9 -8 9 -10 10 C-9.43867066 6.4628562 -8.30442253 5.00738321 -5.5625 2.75 C-4.94503906 2.22921875 -4.32757813 1.7084375 -3.69140625 1.171875 C-2 0 -2 0 0 0 Z " fill="#E5FDFC" transform="translate(472,287)"/>
<path d="M0 0 C0.763125 0.350625 1.52625 0.70125 2.3125 1.0625 C5.04759379 2.32360884 5.04759379 2.32360884 8 1 C7.34 2.65 6.68 4.3 6 6 C5.01 6 4.02 6 3 6 C0.8125 3.5 0.8125 3.5 -1 1 C-0.67 0.67 -0.34 0.34 0 0 Z " fill="#FBEDF7" transform="translate(628,280)"/>
<path d="M0 0 C3.125 0.375 3.125 0.375 6 1 C2.25 4 2.25 4 0 4 C-0.33 5.65 -0.66 7.3 -1 9 C-1.33 9 -1.66 9 -2 9 C-2.125 5.625 -2.125 5.625 -2 2 C-1.34 1.34 -0.68 0.68 0 0 Z " fill="#FDEAF9" transform="translate(618,277)"/>
<path d="M0 0 C1.32 0.66 2.64 1.32 4 2 C3.21625 2.598125 2.4325 3.19625 1.625 3.8125 C-1.14574323 5.91085249 -1.14574323 5.91085249 -3 9 C-3.75 7.3125 -3.75 7.3125 -4 5 C-2.0625 2.25 -2.0625 2.25 0 0 Z " fill="#2B2B2B" transform="translate(684,451)"/>
<path d="M0 0 C4.29 0.99 8.58 1.98 13 3 C13 3.33 13 3.66 13 4 C7.55106131 5.19876651 4.77830905 4.91360308 0 2 C0 1.34 0 0.68 0 0 Z " fill="#DEFDF9" transform="translate(477,329)"/>
<path d="M0 0 C0 0.33 0 0.66 0 1 C-1.91345327 1.53251766 -3.8309295 2.05059483 -5.75 2.5625 C-6.81734375 2.85253906 -7.8846875 3.14257812 -8.984375 3.44140625 C-11.84335927 3.97098494 -13.31597383 3.98370862 -16 3 C-10.4477112 0.1647887 -6.19887485 -0.37952295 0 0 Z " fill="#D896BF" transform="translate(709,374)"/>
<path d="M0 0 C0.66 0 1.32 0 2 0 C2 0.66 2 1.32 2 2 C0.5390625 3.4375 0.5390625 3.4375 -1.375 5 C-3.34164804 6.61864036 -5.19674196 8.19674196 -7 10 C-6.67 8.35 -6.34 6.7 -6 5 C-5.38125 4.9175 -4.7625 4.835 -4.125 4.75 C-1.81562433 4.18741541 -1.81562433 4.18741541 -0.75 1.9375 C-0.5025 1.298125 -0.255 0.65875 0 0 Z " fill="#DDFBF9" transform="translate(518,239)"/>
<path d="M0 0 C4.24822374 0.47202486 6.19989709 2.96655518 9 6 C8.34 6.66 7.68 7.32 7 8 C3.75700849 5.61042731 1.49097658 3.7952131 0 0 Z " fill="#F9E6F4" transform="translate(665,319)"/>
<path d="M0 0 C0.66 0.33 1.32 0.66 2 1 C2.34342449 2.33076989 2.67619874 3.66431979 3 5 C3.66 5.66 4.32 6.32 5 7 C4.34 7.66 3.68 8.32 3 9 C1.35 7.35 -0.3 5.7 -2 4 C-1.34 3.67 -0.68 3.34 0 3 C0 2.01 0 1.02 0 0 Z " fill="#F8E7F2" transform="translate(659,308)"/>
<path d="M0 0 C1.134375 0.020625 2.26875 0.04125 3.4375 0.0625 C3.1075 1.0525 2.7775 2.0425 2.4375 3.0625 C0.7875 3.3925 -0.8625 3.7225 -2.5625 4.0625 C-3.2225 3.0725 -3.8825 2.0825 -4.5625 1.0625 C-3.5625 0.0625 -3.5625 0.0625 0 0 Z " fill="#FEF3F0" transform="translate(577.5625,274.9375)"/>
<path d="M0 0 C3.00617269 3.00617269 2.59585316 5.82381598 3 10 C2.01 10 1.02 10 0 10 C0 6.7 0 3.4 0 0 Z " fill="#94DED1" transform="translate(549,265)"/>
<path d="M0 0 C0.33 0.66 0.66 1.32 1 2 C-0.125 4.5625 -0.125 4.5625 -2 7 C-4.6875 7.8125 -4.6875 7.8125 -7 8 C-6.02133662 6.85373678 -5.04205413 5.70800212 -4.0625 4.5625 C-3.51722656 3.92441406 -2.97195313 3.28632813 -2.41015625 2.62890625 C-1.63204305 1.73008851 -0.84063472 0.84063472 0 0 Z " fill="#9CE5D9" transform="translate(497,262)"/>
<path d="M0 0 C0.33 0.66 0.66 1.32 1 2 C-0.125 4.5625 -0.125 4.5625 -2 7 C-4.6875 7.8125 -4.6875 7.8125 -7 8 C-5.71937515 6.2925002 -4.38232443 4.62626404 -3 3 C-2.34 3 -1.68 3 -1 3 C-0.67 2.01 -0.34 1.02 0 0 Z " fill="#99E4D8" transform="translate(513,246)"/>
<path d="M0 0 C0.66 0.33 1.32 0.66 2 1 C-1.07999946 4.67230705 -3.2482602 5.56802365 -8 6 C-5.54080489 3.3651481 -3.42227589 1.25483449 0 0 Z " fill="#FBF4D3" transform="translate(677,217)"/>
<path d="M0 0 C3.465 1.485 3.465 1.485 7 3 C6.01 3.99 5.02 4.98 4 6 C3.01 5.67 2.02 5.34 1 5 C0.67 3.35 0.34 1.7 0 0 Z " fill="#ECECEC" transform="translate(664,490)"/>
<path d="M0 0 C1.09658936 3.28976808 0.79953138 4.71303767 0 8 C-2.50037734 5.82575883 -3.43628586 4.26954202 -4 1 C-2 0 -2 0 0 0 Z " fill="#2D2D2D" transform="translate(659,476)"/>
<path d="M0 0 C0.99 0.33 1.98 0.66 3 1 C3 2.98 3 4.96 3 7 C0.03 6.505 0.03 6.505 -3 6 C-1.68 5.67 -0.36 5.34 1 5 C1 4.34 1 3.68 1 3 C0.34 3 -0.32 3 -1 3 C-0.67 2.01 -0.34 1.02 0 0 Z " fill="#E4E4E4" transform="translate(458,467)"/>
<path d="M0 0 C-3.06246747 1.78409802 -5.22079273 2.22880021 -8.75 2.125 C-9.54921875 2.10695313 -10.3484375 2.08890625 -11.171875 2.0703125 C-11.77515625 2.04710937 -12.3784375 2.02390625 -13 2 C-8.47433587 -1.01710942 -5.23518729 -1.34619102 0 0 Z " fill="#FBE7F6" transform="translate(658,390)"/>
<path d="M0 0 C0.99 0.33 1.98 0.66 3 1 C0.69 3.31 -1.62 5.62 -4 8 C-4.33 7.34 -4.66 6.68 -5 6 C-2.59016393 1.29508197 -2.59016393 1.29508197 0 0 Z " fill="#E8FDFC" transform="translate(497,259)"/>
<path d="M0 0 C1.65 1.32 3.3 2.64 5 4 C4.67 4.66 4.34 5.32 4 6 C2.68 6 1.36 6 0 6 C-0.38218767 4.34385343 -0.71395102 2.67542976 -1 1 C-0.67 0.67 -0.34 0.34 0 0 Z " fill="#EDEDED" transform="translate(430,487)"/>
<path d="M0 0 C0.33 0.66 0.66 1.32 1 2 C0.06553465 4.03144641 -0.93224776 6.03533587 -2 8 C-2.66 7.67 -3.32 7.34 -4 7 C-3.67 5.02 -3.34 3.04 -3 1 C-2.01 0.67 -1.02 0.34 0 0 Z " fill="#2C2C2C" transform="translate(115,455)"/>
<path d="M0 0 C2.66735273 2.48952921 4.55746343 4.63408134 6 8 C3.03824877 7.38722388 1.61941217 6.74627478 -1 5 C-0.67 3.35 -0.34 1.7 0 0 Z " fill="#393939" transform="translate(106,376)"/>
<path d="M0 0 C1.32 0 2.64 0 4 0 C4 3 4 3 3 6 C1.68 5.01 0.36 4.02 -1 3 C-0.67 2.01 -0.34 1.02 0 0 Z " fill="#F4F4F4" transform="translate(103,369)"/>
<path d="M0 0 C1.32 0 2.64 0 4 0 C4 0.66 4 1.32 4 2 C6.31 2.33 8.62 2.66 11 3 C11 3.99 11 4.98 11 6 C5.25 4.125 5.25 4.125 3 3 C3 2.34 3 1.68 3 1 C2.01 0.67 1.02 0.34 0 0 Z " fill="#FBF2C2" transform="translate(600,157)"/>
<path d="M0 0 C0 0.99 0 1.98 0 3 C0.33 3.99 0.66 4.98 1 6 C-0.32 6.99 -1.64 7.98 -3 9 C-2.25 2.25 -2.25 2.25 0 0 Z " fill="#DDDDDD" transform="translate(236,417)"/>
<path d="M0 0 C2.475 0.99 2.475 0.99 5 2 C3.625 4.5 3.625 4.5 2 7 C1.34 7 0.68 7 0 7 C0 4.69 0 2.38 0 0 Z " fill="#CDCDCD" transform="translate(338,402)"/>
<path d="M0 0 C-2 2 -2 2 -4.1640625 2.1953125 C-5.38222656 2.16050781 -5.38222656 2.16050781 -6.625 2.125 C-7.44226563 2.10695313 -8.25953125 2.08890625 -9.1015625 2.0703125 C-9.72804688 2.04710937 -10.35453125 2.02390625 -11 2 C-7.06425135 -0.62383243 -4.54354105 -1.51451368 0 0 Z " fill="#363636" transform="translate(678,397)"/>
<path d="M0 0 C0.66 0 1.32 0 2 0 C2 0.66 2 1.32 2 2 C3.32 2.33 4.64 2.66 6 3 C3.35261084 4.4606285 2.10551666 5 -1 5 C-0.67 3.35 -0.34 1.7 0 0 Z " fill="#C48CB0" transform="translate(590,390)"/>
<path d="M0 0 C1.98953324 1.98953324 2.97746933 3.40434522 4 6 C3.67 6.99 3.34 7.98 3 9 C1.35 7.02 -0.3 5.04 -2 3 C-1.34 3 -0.68 3 0 3 C0 2.01 0 1.02 0 0 Z " fill="#FAE8F3" transform="translate(691,340)"/>
<path d="M0 0 C0.99 0.33 1.98 0.66 3 1 C1.38405168 3.04119788 -0.2856382 5.04072937 -2 7 C-2.66 7 -3.32 7 -4 7 C-3.43628586 3.73045798 -2.50037734 2.17424117 0 0 Z " fill="#E4FDFB" transform="translate(482,274)"/>
<path d="M0 0 C2.97 0 5.94 0 9 0 C9 1.65 9 3.3 9 5 C8.67 4.34 8.34 3.68 8 3 C6.10466658 2.53476937 6.10466658 2.53476937 3.9375 2.375 C2.638125 2.25125 1.33875 2.1275 0 2 C0 1.34 0 0.68 0 0 Z " fill="#DAF9F5" transform="translate(532,226)"/>
<path d="M0 0 C1.98 0 3.96 0 6 0 C6.66 1.65 7.32 3.3 8 5 C4.62496331 3.8141763 2.35277269 2.72426311 0 0 Z " fill="#FCF7D0" transform="translate(627,172)"/>
<path d="M0 0 C1.9375 0.3125 1.9375 0.3125 4 1 C4.33 1.99 4.66 2.98 5 4 C4.01 4.33 3.02 4.66 2 5 C1.34 4.67 0.68 4.34 0 4 C0 2.68 0 1.36 0 0 Z " fill="#2A2A2A" transform="translate(208,465)"/>
<path d="M0 0 C2.86724686 0.57344937 3.8614515 0.8614515 6 3 C5.34 3.66 4.68 4.32 4 5 C2.02 4.34 0.04 3.68 -2 3 C-1.34 2.01 -0.68 1.02 0 0 Z " fill="#E4E4E4" transform="translate(725,394)"/>
<path d="M0 0 C0.66 0.33 1.32 0.66 2 1 C1.67 1.99 1.34 2.98 1 4 C-1.64 4.33 -4.28 4.66 -7 5 C-5.47058649 1.94117299 -3.05780454 1.31048766 0 0 Z " fill="#FCF5D1" transform="translate(617,253)"/>
<path d="M0 0 C4.43090471 1.20842856 6.98112756 2.51668565 10 6 C5.16743695 5.58578031 3.17320782 3.53586014 0 0 Z " fill="#EBDD87" transform="translate(651,187)"/>
<path d="M0 0 C2.625 0.9375 2.625 0.9375 5 2 C2 4 2 4 -1 4 C-1.33 3.01 -1.66 2.02 -2 1 C-1.34 0.67 -0.68 0.34 0 0 Z " fill="#EAEAEA" transform="translate(683,429)"/>
<path d="M0 0 C0.66 1.32 1.32 2.64 2 4 C1.34 4.66 0.68 5.32 0 6 C-0.99 6 -1.98 6 -3 6 C-3 4.35 -3 2.7 -3 1 C-2.01 1.495 -2.01 1.495 -1 2 C-0.67 1.34 -0.34 0.68 0 0 Z " fill="#1D1D1D" transform="translate(209,410)"/>
<path d="M0 0 C0.556875 0.226875 1.11375 0.45375 1.6875 0.6875 C-3.9375 4.6875 -3.9375 4.6875 -7.3125 4.6875 C-7.3125 4.0275 -7.3125 3.3675 -7.3125 2.6875 C-3.15982824 -0.42700382 -3.15982824 -0.42700382 0 0 Z " fill="#EDD987" transform="translate(648.3125,233.3125)"/>
<path d="M0 0 C0.66 0.33 1.32 0.66 2 1 C0.8125 3 0.8125 3 -1 5 C-3.6875 5.25 -3.6875 5.25 -6 5 C-5.195625 4.360625 -4.39125 3.72125 -3.5625 3.0625 C-1.7249496 1.59396498 -1.7249496 1.59396498 0 0 Z " fill="#FDF9DC" transform="translate(667,223)"/>
</svg>
